<?xml version="1.0" encoding="utf-8"?>
<svg viewBox="0 0 512 530" xmlns="http://www.w3.org/2000/svg">
  <path opacity="1.000000" stroke="none" d="M 309 531 C 206.025 531 102.549 531 0.037 531 C 0.037 354.4 0.037 176.801 0.037 0.1 C 170.559 0.1 342.026 -1.451 512.746 -1.451 C 512.746 175.115 512.838 354.333 512.838 531 C 445.134 531 377.317 531 309 531 M 96.094 490.568 C 97.222 490.86 98.385 491.057 99.472 491.458 C 121.566 499.615 144.615 502.935 167.937 503.887 C 211.274 505.656 253.532 498.621 294.974 486.384 C 328.066 476.612 359.516 462.963 389 444.973 C 418.059 427.244 444.356 406.3 464.503 378.462 C 481.139 355.477 489.291 329.907 488.287 301.339 C 487.066 266.598 477.467 234.198 461.759 203.494 C 443.866 168.516 420.292 137.701 392.059 110.432 C 364.365 83.683 333.469 61.243 299.104 43.971 C 276.701 32.711 253.278 23.942 228.607 18.311 C 208.162 13.644 188.857 15.323 170.362 24.424 C 152.618 33.154 137.176 45.279 123.7 59.792 C 97.411 88.102 77.284 120.547 61.245 155.463 C 37.927 206.228 21.901 259.16 16.462 315.009 C 13.163 348.883 13.332 382.55 23.15 415.503 C 29.892 438.133 40.654 458.644 60.611 472.238 C 71.32 479.532 83.736 484.32 96.094 490.568 Z" style=""/>
</svg>