                <svg
                  xmlns="http://www.w3.org/2000/svg"
                  width="28.92"
                  height="28.92"
                  viewBox="0 0 28.92 28.92"
                >
                  <g id="collaborate" transform="translate(-2.25 -2.25)">
                    <path
                      id="Path_2773"
                      data-name="Path 2773"
                      d="M6.566,23.533V22.5H4.5v1.033a7.23,7.23,0,0,0,7.23,7.23h3.1V28.7h-3.1A5.164,5.164,0,0,1,6.566,23.533Z"
                      transform="translate(-0.184 -1.659)"
                      fill="#3fb3e6"
                    />
                    <path
                      id="Path_2774"
                      data-name="Path 2774"
                      d="M26.263,11.73v1.033h2.066V11.73A7.23,7.23,0,0,0,21.1,4.5H18V6.566h3.1a5.164,5.164,0,0,1,5.164,5.164Z"
                      transform="translate(-1.29 -0.184)"
                      fill="#3fb3e6"
                    />
                    <path
                      id="Path_2775"
                      data-name="Path 2775"
                      d="M11.546,12.375h-6.2a3.1,3.1,0,0,0-3.1,3.1v2.066H4.316V15.474a1.033,1.033,0,0,1,1.033-1.033h6.2a1.033,1.033,0,0,1,1.033,1.033v2.066h2.066V15.474A3.1,3.1,0,0,0,11.546,12.375Z"
                      transform="translate(0 -0.829)"
                      fill="#3fb3e6"
                    />
                    <path
                      id="Path_2776"
                      data-name="Path 2776"
                      d="M8.631,10.513A4.131,4.131,0,1,0,4.5,6.381,4.131,4.131,0,0,0,8.631,10.513Zm0-6.2A2.066,2.066,0,1,1,6.566,6.381,2.066,2.066,0,0,1,8.631,4.316Z"
                      transform="translate(-0.184)"
                      fill="#3fb3e6"
                    />
                    <path
                      id="Path_2777"
                      data-name="Path 2777"
                      d="M29.546,28.125h-6.2a3.1,3.1,0,0,0-3.1,3.1v2.066h2.066V31.224a1.033,1.033,0,0,1,1.033-1.033h6.2a1.033,1.033,0,0,1,1.033,1.033v2.066h2.066V31.224a3.1,3.1,0,0,0-3.1-3.1Z"
                      transform="translate(-1.474 -2.119)"
                      fill="#3fb3e6"
                    />
                    <path
                      id="Path_2778"
                      data-name="Path 2778"
                      d="M22.5,22.131A4.131,4.131,0,1,0,26.631,18,4.131,4.131,0,0,0,22.5,22.131Zm6.2,0a2.066,2.066,0,1,1-2.066-2.066A2.066,2.066,0,0,1,28.7,22.131Z"
                      transform="translate(-1.659 -1.29)"
                      fill="#3fb3e6"
                    />
                  </g>
                </svg>