<svg
                      id="_07"
                      data-name="07"
                      xmlns="http://www.w3.org/2000/svg"
                      width="59.971"
                      height="59.971"
                      viewBox="0 0 59.971 59.971"
                    >
                      <path
                        id="Path_413"
                        data-name="Path 413"
                        d="M11.113,6.115a5,5,0,1,0,5,5A5,5,0,0,0,11.113,6.115Zm0,8.061a3.063,3.063,0,1,1,3.063-3.063A3.067,3.067,0,0,1,11.113,14.176Z"
                        transform="translate(-0.473 -0.473)"
                        fill="#3fb3e6"
                      />
                      <path
                        id="Path_414"
                        data-name="Path 414"
                        d="M48.364,46.429v-2.9h6.771V31.92H35.789v4.836h-5.8V29.018h6.771V25.149h9.673V16.444h8.705V4.836H31.92V9.673H21.28v-1.4l-3.042-.759-.014-.033,1.613-2.689L16.489,1.443,13.8,3.057l-.033-.015L13.008,0H8.272L7.513,3.042l-.033.015L4.791,1.443,1.442,4.79,3.056,7.479l-.015.033L0,8.272v4.736l3.042.759.015.033L1.443,16.489l3.348,3.348L7.48,18.223l.033.014.759,3.042h4.736l.759-3.042.033-.014,2.689,1.613,3.348-3.348L18.223,13.8l.014-.033,3.042-.759v-1.4H31.92v4.836H44.494v6.771H36.756V19.345H21.28v9.673h6.771v9.673h7.738v4.836h10.64v2.9H36.756v3.385l-4.514-3.385H7.738C5.062,46.429,0,47.844,0,53.2s5.062,6.771,7.738,6.771h24.5l4.514-3.385v3.385H59.971V46.429ZM19.345,11.5l-2.581.645-.169.5a6.3,6.3,0,0,1-.329.787l-.235.474L17.4,16.189,16.189,17.4l-2.284-1.371-.474.235a6.359,6.359,0,0,1-.787.329l-.5.169L11.5,19.345H9.784l-.645-2.581-.5-.169a6.3,6.3,0,0,1-.787-.329l-.474-.235L5.092,17.4,3.879,16.189l1.371-2.284-.235-.474a6.353,6.353,0,0,1-.329-.787l-.169-.5L1.935,11.5V9.784l2.581-.645.169-.5a6.293,6.293,0,0,1,.329-.787l.235-.474L3.878,5.091,5.091,3.878,7.374,5.248l.474-.235a6.355,6.355,0,0,1,.787-.329l.5-.169.645-2.581H11.5l.645,2.581.5.169a6.3,6.3,0,0,1,.787.329l.474.235,2.284-1.371L17.4,5.091,16.031,7.374l.235.474a6.345,6.345,0,0,1,.329.787l.169.5,2.582.645ZM33.854,6.771H53.2v7.738H33.854ZM23.214,21.28H34.822v5.8H23.214ZM37.724,33.854H53.2v7.738H37.724ZM8.705,48.364H10.64v9.673H8.705Zm21.28,3.869H12.574V48.364H29.985ZM12.574,54.167H29.985v3.869H12.574ZM1.935,53.2c0-3.6,3.181-4.517,4.836-4.754v9.507C5.116,57.717,1.935,56.8,1.935,53.2ZM31.92,57.794V48.605L38.046,53.2Zm26.116.242H38.691v-2.9L41.27,53.2l-2.58-1.935v-2.9H58.036Z"
                        fill="#3fb3e6"
                      />
                      <path
                        id="Path_415"
                        data-name="Path 415"
                        d="M42.9,12.418a.967.967,0,1,0-.967-.967A.967.967,0,0,0,42.9,12.418Z"
                        transform="translate(-3.245 -0.811)"
                        fill="#3fb3e6"
                      />
                      <path
                        id="Path_416"
                        data-name="Path 416"
                        d="M47.1,12.418a.967.967,0,1,0-.967-.967A.967.967,0,0,0,47.1,12.418Z"
                        transform="translate(-3.569 -0.811)"
                        fill="#3fb3e6"
                      />
                      <path
                        id="Path_417"
                        data-name="Path 417"
                        d="M29.274,27.1a.967.967,0,1,0-.967-.967A.967.967,0,0,0,29.274,27.1Z"
                        transform="translate(-2.19 -1.947)"
                        fill="#3fb3e6"
                      />
                      <path
                        id="Path_418"
                        data-name="Path 418"
                        d="M33.467,27.1a.967.967,0,1,0-.967-.967A.967.967,0,0,0,33.467,27.1Z"
                        transform="translate(-2.515 -1.947)"
                        fill="#3fb3e6"
                      />
                      <path
                        id="Path_419"
                        data-name="Path 419"
                        d="M51.29,12.418a.967.967,0,1,0-.967-.967A.967.967,0,0,0,51.29,12.418Z"
                        transform="translate(-3.894 -0.811)"
                        fill="#3fb3e6"
                      />
                      <path
                        id="Path_420"
                        data-name="Path 420"
                        d="M45,41.773a.967.967,0,1,0-.967-.967A.967.967,0,0,0,45,41.773Z"
                        transform="translate(-3.407 -3.082)"
                        fill="#3fb3e6"
                      />
                      <path
                        id="Path_421"
                        data-name="Path 421"
                        d="M49.193,41.773a.967.967,0,1,0-.967-.967A.967.967,0,0,0,49.193,41.773Z"
                        transform="translate(-3.731 -3.082)"
                        fill="#3fb3e6"
                      />
                      <path
                        id="Path_422"
                        data-name="Path 422"
                        d="M53.387,41.773a.967.967,0,1,0-.967-.967A.967.967,0,0,0,53.387,41.773Z"
                        transform="translate(-4.056 -3.082)"
                        fill="#3fb3e6"
                      />
                      <path
                        id="Path_423"
                        data-name="Path 423"
                        d="M49.193,58.547a.967.967,0,1,0-.967-.967A.967.967,0,0,0,49.193,58.547Z"
                        transform="translate(-3.731 -4.38)"
                        fill="#3fb3e6"
                      />
                      <path
                        id="Path_424"
                        data-name="Path 424"
                        d="M53.387,58.547a.967.967,0,1,0-.967-.967A.967.967,0,0,0,53.387,58.547Z"
                        transform="translate(-4.056 -4.38)"
                        fill="#3fb3e6"
                      />
                      <path
                        id="Path_425"
                        data-name="Path 425"
                        d="M57.58,58.547a.967.967,0,1,0-.967-.967A.967.967,0,0,0,57.58,58.547Z"
                        transform="translate(-4.38 -4.38)"
                        fill="#3fb3e6"
                      />
</svg>