                    <svg
                      id="Group_14188"
                      data-name="Group 14188"
                      xmlns="http://www.w3.org/2000/svg"
                      width="52.77"
                      height="65.435"
                      viewBox="0 0 52.77 65.435"
                    >
                      <g id="حقخت">
                        <path
                          id="Path_446"
                          data-name="Path 446"
                          d="M49.422,0H34.646A3.17,3.17,0,0,0,31.48,3.166V5.277a4.222,4.222,0,1,0,0,8.443V19h8.443V16.886a2.111,2.111,0,1,1,4.222,0V19h5.277a3.17,3.17,0,0,0,3.166-3.166V3.166A3.17,3.17,0,0,0,49.422,0Zm1.055,15.831a1.056,1.056,0,0,1-1.055,1.055H46.255a4.222,4.222,0,0,0-8.443,0H33.591V11.609H31.48a2.111,2.111,0,1,1,0-4.222h2.111V3.166a1.056,1.056,0,0,1,1.055-1.055H49.422a1.056,1.056,0,0,1,1.055,1.055Z"
                          transform="translate(0.182)"
                          fill="#3fb3e6"
                        />
                        <path
                          id="Path_447"
                          data-name="Path 447"
                          d="M31.662,21.066a4.226,4.226,0,0,0-4.222,4.222H23.219V20.011H21.108a2.111,2.111,0,1,1,0-4.222h2.111V6.29h-2.83A20.389,20.389,0,0,0,7.479,42.46l4.131,3.38V48.7a3.148,3.148,0,0,0,.232,6.016,3.136,3.136,0,0,0,1.936,4.167,7.383,7.383,0,0,0,14.662,0,3.137,3.137,0,0,0,1.936-4.168,3.148,3.148,0,0,0,.232-6.016V45.839l4.131-3.38A20.311,20.311,0,0,0,42.216,26.68V25.288H35.884A4.226,4.226,0,0,0,31.662,21.066ZM20.389,8.4h.719v5.277a4.222,4.222,0,1,0,0,8.443v3.166H16.886a4.222,4.222,0,1,0-8.443,0H2.164A18.3,18.3,0,0,1,20.389,8.4ZM8.815,40.826A18.2,18.2,0,0,1,2.126,27.4h8.428V25.288a2.111,2.111,0,1,1,4.222,0V27.4h6.333V31.62a4.222,4.222,0,1,0,0,8.443v8.443H13.72V44.84ZM21.108,63.282a5.287,5.287,0,0,1-5.17-4.222H26.279A5.287,5.287,0,0,1,21.108,63.282Zm6.332-6.332H14.776a1.055,1.055,0,0,1,0-2.111H27.441a1.055,1.055,0,0,1,0,2.111Zm2.111-4.222H12.665a1.055,1.055,0,1,1,0-2.111H29.551a1.055,1.055,0,1,1,0,2.111Zm3.85-11.9L28.5,44.84v3.666H23.219V37.952H21.108a2.111,2.111,0,1,1,0-4.222h2.111V27.4h6.333V25.288a2.111,2.111,0,1,1,4.222,0V27.4h6.318A18.2,18.2,0,0,1,33.4,40.826Z"
                          transform="translate(0 0.042)"
                          fill="#3fb3e6"
                        />
                      </g>
                    </svg>