                    <svg
                      id="_08"
                      data-name="08"
                      xmlns="http://www.w3.org/2000/svg"
                      width="62.29"
                      height="62.29"
                      viewBox="0 0 62.29 62.29"
                    >
                      <path
                        id="Path_426"
                        data-name="Path 426"
                        d="M56.262,33.687v-19.7a7.029,7.029,0,1,0-8.037-6.952H0V47.22H30.191a16.064,16.064,0,1,0,26.07-13.533Zm-1-31.677a5.023,5.023,0,1,1-5.023,5.023A5.029,5.029,0,0,1,55.257,2.009ZM2.009,9.042H48.521a7.026,7.026,0,0,0,1.112,2.2l-6.145,6.145a2.91,2.91,0,0,0-2.583,0l-2.024-2.024a2.986,2.986,0,0,0,.3-1.292,3.014,3.014,0,0,0-6.028,0,2.964,2.964,0,0,0,.3,1.291l-5.038,5.038a2.985,2.985,0,0,0-1.292-.3,3.014,3.014,0,1,0,3.014,3.014,2.965,2.965,0,0,0-.3-1.291l5.038-5.038a2.913,2.913,0,0,0,2.583,0L39.484,18.8a2.987,2.987,0,0,0-.3,1.292,3.014,3.014,0,1,0,6.028,0,2.964,2.964,0,0,0-.3-1.291l6.145-6.145a6.991,6.991,0,0,0,3.2,1.328v18.33a15.977,15.977,0,0,0-20.093,3.3V31.145H28.131V43.2h2.3a16.111,16.111,0,0,0-.242,2.009H2.009ZM42.2,19.089a1,1,0,1,1-1,1A1.006,1.006,0,0,1,42.2,19.089Zm-7.033-5.023a1,1,0,1,1,1,1A1.006,1.006,0,0,1,35.163,14.065Zm-7.033,9.042a1,1,0,1,1-1-1A1.006,1.006,0,0,1,28.131,23.107ZM46.215,54.252a8.037,8.037,0,1,1,8.037-8.037A8.047,8.047,0,0,1,46.215,54.252ZM32.15,38.45a15.944,15.944,0,0,0-1.195,2.742H30.14V33.154H32.15ZM45.21,32.2v4.019a10.026,10.026,0,0,0-8.147,14.119L33.578,52.35A14.017,14.017,0,0,1,45.21,32.2Zm1,28.08A14.058,14.058,0,0,1,34.573,54.1l3.5-2.02a10.014,10.014,0,0,0,16.286,0l3.5,2.02A14.058,14.058,0,0,1,46.215,60.28Zm12.637-7.93-3.485-2.012A10.026,10.026,0,0,0,47.22,36.219V32.2A14.017,14.017,0,0,1,58.852,52.35Z"
                        fill="#3fb3e6"
                      />
                      <path
                        id="Path_427"
                        data-name="Path 427"
                        d="M47.963,41.936a6.028,6.028,0,1,0,6.028,6.028A6.034,6.034,0,0,0,47.963,41.936Zm0,10.047a4.019,4.019,0,1,1,4.019-4.019A4.023,4.023,0,0,1,47.963,51.982Z"
                        transform="translate(-1.749 -1.749)"
                        fill="#3fb3e6"
                      />
                      <path
                        id="Path_428"
                        data-name="Path 428"
                        d="M4.194,11.532H6.2v2.009H4.194Z"
                        transform="translate(-0.175 -0.481)"
                        fill="#3fb3e6"
                      />
                      <path
                        id="Path_429"
                        data-name="Path 429"
                        d="M8.387,11.532H22.452v2.009H8.387Z"
                        transform="translate(-0.35 -0.481)"
                        fill="#3fb3e6"
                      />
                      <path
                        id="Path_430"
                        data-name="Path 430"
                        d="M4.194,15.726H6.2v2.009H4.194Z"
                        transform="translate(-0.175 -0.656)"
                        fill="#3fb3e6"
                      />
                      <path
                        id="Path_431"
                        data-name="Path 431"
                        d="M8.387,15.726H22.452v2.009H8.387Z"
                        transform="translate(-0.35 -0.656)"
                        fill="#3fb3e6"
                      />
                      <path
                        id="Path_432"
                        data-name="Path 432"
                        d="M4.194,19.919H6.2v2.009H4.194Z"
                        transform="translate(-0.175 -0.831)"
                        fill="#3fb3e6"
                      />
                      <path
                        id="Path_433"
                        data-name="Path 433"
                        d="M8.387,19.919H22.452v2.009H8.387Z"
                        transform="translate(-0.35 -0.831)"
                        fill="#3fb3e6"
                      />
                      <path
                        id="Path_434"
                        data-name="Path 434"
                        d="M4.194,24.113H6.2v2.009H4.194Z"
                        transform="translate(-0.175 -1.005)"
                        fill="#3fb3e6"
                      />
                      <path
                        id="Path_435"
                        data-name="Path 435"
                        d="M8.387,24.113H22.452v2.009H8.387Z"
                        transform="translate(-0.35 -1.005)"
                        fill="#3fb3e6"
                      />
                      <path
                        id="Path_436"
                        data-name="Path 436"
                        d="M4.194,44.643h6.028V34.6H4.194ZM6.2,36.606H8.212v6.028H6.2Z"
                        transform="translate(-0.175 -1.443)"
                        fill="#3fb3e6"
                      />
                      <path
                        id="Path_437"
                        data-name="Path 437"
                        d="M12.581,44.731h6.028V36.694H12.581ZM14.59,38.7H16.6v4.019H14.59Z"
                        transform="translate(-0.525 -1.53)"
                        fill="#3fb3e6"
                      />
                      <path
                        id="Path_438"
                        data-name="Path 438"
                        d="M20.968,44.381H27V28.306H20.968Zm2.009-14.065h2.009V42.372H22.977Z"
                        transform="translate(-0.874 -1.18)"
                        fill="#3fb3e6"
                      />
                    </svg>