                <svg
                  xmlns="http://www.w3.org/2000/svg"
                  width="29.379"
                  height="34.277"
                  viewBox="0 0 29.379 34.277"
                >
                  <path
                    id="file-code-o"
                    d="M28.078,7.268A4.443,4.443,0,0,1,29,8.722a4.436,4.436,0,0,1,.383,1.683V32.44a1.83,1.83,0,0,1-1.837,1.837H1.837a1.769,1.769,0,0,1-1.3-.536A1.776,1.776,0,0,1,0,32.44V1.837A1.769,1.769,0,0,1,.536.536,1.776,1.776,0,0,1,1.837,0H18.974a4.412,4.412,0,0,1,1.683.383,4.464,4.464,0,0,1,1.454.918ZM19.586,2.6V9.793h7.192a2.09,2.09,0,0,0-.421-.785L20.37,3.022a2.09,2.09,0,0,0-.785-.421ZM26.93,31.827V12.241H18.974A1.83,1.83,0,0,1,17.138,10.4V2.448H2.448V31.827H26.93ZM9.181,14.69a.559.559,0,0,1,.4-.239.633.633,0,0,1,.459.125l.976.726a.559.559,0,0,1,.239.4.633.633,0,0,1-.125.459L7.651,20.811l3.481,4.648a.633.633,0,0,1,.125.459.559.559,0,0,1-.239.4l-.976.726a.633.633,0,0,1-.459.125.559.559,0,0,1-.4-.239L4.859,21.175a.56.56,0,0,1,0-.726Zm15.34,5.757a.56.56,0,0,1,0,.726L20.2,26.931a.559.559,0,0,1-.4.239.633.633,0,0,1-.459-.125l-.976-.726a.559.559,0,0,1-.239-.4.633.633,0,0,1,.125-.459l3.481-4.648-3.481-4.648a.633.633,0,0,1-.125-.459.559.559,0,0,1,.239-.4l.976-.726a.633.633,0,0,1,.459-.125.559.559,0,0,1,.4.239ZM12.663,29.265a.56.56,0,0,1-.392-.248.617.617,0,0,1-.1-.459l2.639-15.894a.56.56,0,0,1,.248-.392.617.617,0,0,1,.459-.1l1.205.191a.56.56,0,0,1,.392.248.617.617,0,0,1,.1.459L14.576,28.959a.56.56,0,0,1-.248.392.617.617,0,0,1-.459.1Z"
                    fill="#3fb3e6"
                  />
                </svg>