                <svg
                  xmlns="http://www.w3.org/2000/svg"
                  width="26.422"
                  height="39.45"
                  viewBox="0 0 26.422 39.45"
                >
                  <g id="ؤقثشفهرث" transform="translate(-0.41 3.979)">
                    <path
                      id="Path_439"
                      data-name="Path 439"
                      d="M26.573,31.106a12.032,12.032,0,0,1-1.85-6.306.567.567,0,0,0-.567-.567h-.121L26.5,19.2a1.887,1.887,0,0,0-.868-2.526l-2.525-1.232a1.893,1.893,0,0,0-2.527.868L16.7,24.234h-1.68V20.777a.567.567,0,0,0-1.134,0v3.457h-.982V20.777a.567.567,0,0,0-1.134,0v3.457H9.4l-1.635-4.8a.573.573,0,0,0-.172-.251L3.249,15.533a.567.567,0,0,0-.919.318L1.151,21.492a.575.575,0,0,0,.018.3L2,24.234H1.474a.567.567,0,0,0-.548.422A19.363,19.363,0,0,0,.41,29.109a12.832,12.832,0,0,0,2.526,8.236.567.567,0,0,0,.88-.714C.7,32.788,1.6,26.972,1.927,25.367H14.639a5.619,5.619,0,0,1-1.756,3.775,3.467,3.467,0,0,0-2.3-1.016,3.174,3.174,0,0,0-.793,6.248,9.341,9.341,0,0,1-4.128,4.089.566.566,0,0,0-.547.566V44.37a.567.567,0,0,0,.567.567H14.6a.567.567,0,0,0,.567-.567V41.857h1.454a8.566,8.566,0,0,0,8.542-8.086,1.715,1.715,0,0,0,1.448-.894A1.744,1.744,0,0,0,26.573,31.106ZM21.6,16.81a.758.758,0,0,1,1.012-.348l2.525,1.232a.76.76,0,0,1,.346,1.008l-.445.908-1-.486a.567.567,0,0,0-.5,1.019l.994.485L23.67,22.4l-1.616-.788a.567.567,0,0,0-.5,1.019l1.615.788-.4.816H17.963ZM6.256,24.234l-.743-2.242L6.97,20.627,8.2,24.234Zm-3.246-6.1,1.129-.376L6.37,19.636l-1.706,1.6-2.27-.149Zm-.494,4.092,1.924.126.622,1.879H3.2Zm23.1,10.1a.591.591,0,0,1-.517.312h-.494a.6.6,0,0,0-.567.663,7.43,7.43,0,0,1-7.421,7.421H14.6a.567.567,0,0,0-.567.567V43.8H6.245V39.44a10.309,10.309,0,0,0,4.9-5.322.566.566,0,0,0-.549-.776H10.58a2.041,2.041,0,0,1,0-4.081,2.413,2.413,0,0,1,1.771,1,.567.567,0,0,0,.762.146,6.542,6.542,0,0,0,2.661-5.033H23.6a13.253,13.253,0,0,0,2,6.328A.622.622,0,0,1,25.616,32.327Z"
                      transform="translate(0 -9.466)"
                      fill="#3fb3e6"
                    />
                    <path
                      id="Path_440"
                      data-name="Path 440"
                      d="M31.22,35.14a2.08,2.08,0,0,0-2.078,2.078.567.567,0,0,0,1.134,0,.944.944,0,1,1,1.889,0,.567.567,0,0,0,1.134,0A2.081,2.081,0,0,0,31.22,35.14Z"
                      transform="translate(-11.588 -14.172)"
                      fill="#3fb3e6"
                    />
                    <path
                      id="Path_441"
                      data-name="Path 441"
                      d="M5.73,6.992h.588v.588a.567.567,0,0,0,1.134,0V6.992h.588a.567.567,0,0,0,0-1.134H7.451V5.27a.567.567,0,0,0-1.134,0v.588H5.73A.567.567,0,0,0,5.73,6.992Z"
                      transform="translate(-0.924 -1.904)"
                      fill="#3fb3e6"
                    />
                    <path
                      id="Path_442"
                      data-name="Path 442"
                      d="M30.475,2.306h.588v.587a.567.567,0,0,0,1.134,0V2.306h.588a.567.567,0,0,0,0-1.134H32.2V.584a.567.567,0,0,0-1.134,0v.588h-.588A.567.567,0,0,0,30.475,2.306Z"
                      transform="translate(-20.653 -4.014)"
                      fill="#3fb3e6"
                    />
                    <path
                      id="Path_443"
                      data-name="Path 443"
                      d="M37.061,9.4h.588v.587a.567.567,0,0,0,1.134,0V9.4h.588a.567.567,0,0,0,0-1.134h-.588V7.677a.567.567,0,0,0-1.134,0v.588h-.588A.567.567,0,0,0,37.061,9.4Z"
                      transform="translate(-15.56 -6.013)"
                      fill="#3fb3e6"
                    />
                    <path
                      id="Path_444"
                      data-name="Path 444"
                      d="M14.962,14.11a.592.592,0,0,0,.631-.176c.024-.029.563-.694,1.134-1.463a3.394,3.394,0,0,0,2.338.921h.009a3.439,3.439,0,0,0,2.354-.933c.561.764,1.091,1.424,1.114,1.453a.573.573,0,0,0,1.009-.352l.019-3.536a1.7,1.7,0,0,0-.5-1.216,1.74,1.74,0,0,0-.537-.366l.013-2.411A7.669,7.669,0,0,0,19.5.133a.567.567,0,0,0-.723.873,7.056,7.056,0,0,1,2.5,3.8l-4.321.01a6.156,6.156,0,0,1,.8-1.865.567.567,0,0,0-.958-.606,6.911,6.911,0,0,0-1.125,3.694L15.66,8.456a1.744,1.744,0,0,0-1.055,1.582l-.019,3.536A.566.566,0,0,0,14.962,14.11Zm.777-4.066a.62.62,0,0,1,.628-.6h0a.617.617,0,0,1,.442.181.573.573,0,0,1,.169.38,11.06,11.06,0,0,1-1.251,1.911Zm6.687,1.86A10.887,10.887,0,0,1,21.2,10a.621.621,0,0,1,.627-.572h0a.618.618,0,0,1,.442.181.573.573,0,0,1,.169.409ZM21.411,5.939c0,.029,0,.057,0,.086L21.4,8.347a1.75,1.75,0,0,0-1.338,1.678c0,.217.062.535.7,1.5a2.316,2.316,0,0,1-1.694.739h-.006a2.269,2.269,0,0,1-1.671-.723c.651-.963.718-1.281.719-1.5a1.7,1.7,0,0,0-.5-1.216,1.732,1.732,0,0,0-.819-.461l.013-2.316c0-.032,0-.064,0-.1Z"
                      transform="translate(-5.547 -2.549)"
                      fill="#3fb3e6"
                    />
                    <path
                      id="Path_445"
                      data-name="Path 445"
                      d="M16.831,41.146a.567.567,0,0,0,0,1.134A.567.567,0,0,0,16.831,41.146Z"
                      transform="translate(-6.402 -16.594)"
                      fill="#3fb3e6"
                    />
                  </g>
                </svg>