                <svg
                  xmlns="http://www.w3.org/2000/svg"
                  width="35.925"
                  height="35.925"
                  viewBox="0 0 35.925 35.925"
                >
                  <g id="__TEMP__SVG__" transform="translate(-0.003 -0.001)">
                    <path
                      id="Path_2785"
                      data-name="Path 2785"
                      d="M23.069,5.643,21,3.523l1.606-1.568L24,3.385l2-.025a6.49,6.49,0,0,1,6.566,6.566l-.022,2,1.428,1.4a6.49,6.49,0,0,1,0,9.284L32.543,24l.025,2A6.49,6.49,0,0,1,26,32.565l-2-.022-1.4,1.428a6.49,6.49,0,0,1-9.284,0l-1.4-1.43-2,.025A6.49,6.49,0,0,1,3.363,26l.022-2-1.428-1.4a6.49,6.49,0,0,1,0-9.284l1.43-1.4-.025-2A6.49,6.49,0,0,1,9.929,3.361l2,.022,1.4-1.428a6.49,6.49,0,0,1,9.284,0L21,3.523a4.244,4.244,0,0,0-6.072,0l-2.066,2.12L9.9,5.607A4.244,4.244,0,0,0,5.607,9.9l.036,2.96-2.12,2.068a4.244,4.244,0,0,0,0,6.072l2.12,2.066-.036,2.964A4.244,4.244,0,0,0,9.9,30.323l2.96-.036,2.068,2.12a4.244,4.244,0,0,0,6.072,0l2.066-2.12,2.964.036a4.244,4.244,0,0,0,4.292-4.294l-.036-2.96L32.407,21a4.244,4.244,0,0,0,0-6.072l-2.12-2.066L30.323,9.9a4.244,4.244,0,0,0-4.294-4.292Z"
                      transform="translate(0 0)"
                      fill="#3fb3e6"
                      fill-rule="evenodd"
                    />
                    <g id="dollar" transform="translate(12.363 8.626)">
                      <path
                        id="Path_2786"
                        data-name="Path 2786"
                        d="M13.669,18.874v2.8h1.868v-2.8h.934a3.735,3.735,0,1,0,0-7.47h-.934V7.669H17.4V9.536h1.868V5.8H15.536V3H13.669V5.8h-.934a3.735,3.735,0,1,0,0,7.47h.934v3.735H11.8V15.139H9.934v3.735Zm1.868-1.868h.934a1.868,1.868,0,0,0,0-3.735h-.934Zm-1.868-5.6V7.669h-.934a1.868,1.868,0,1,0,0,3.735Z"
                        transform="translate(-9 -3)"
                        fill="#3fb3e6"
                        fill-rule="evenodd"
                      />
                    </g>
                  </g>
                </svg>