                <svg
                  xmlns="http://www.w3.org/2000/svg"
                  width="31.685"
                  height="31.532"
                  viewBox="0 0 31.685 31.532"
                >
                  <g id="design-line" transform="translate(-2 -0.994)">
                    <path
                      id="Path_2779"
                      data-name="Path 2779"
                      d="M9,17.41v9.162h9.162l-1.911-1.911h-5.34v-5.34Z"
                      transform="translate(-0.313 -0.733)"
                      fill="#3fb3e6"
                    />
                    <path
                      id="Path_2780"
                      data-name="Path 2780"
                      d="M33.4,30.893l-2.742-2.78v2.5H3.911V26.651H5.821V25.122H3.911V18.769H5.821V17.241H3.911V11.126H5.821V9.6H3.911V4.257L19.139,19.4V16.706L3.634,1.277A.955.955,0,0,0,2,1.955V31.571a.955.955,0,0,0,.955.955H32.724a.955.955,0,0,0,.678-1.634Z"
                      transform="translate(0)"
                      fill="#3fb3e6"
                    />
                    <path
                      id="Path_2781"
                      data-name="Path 2781"
                      d="M23.911,28.815h3.821A1.911,1.911,0,0,0,29.643,26.9V8.466l-2.2-4.041a1.92,1.92,0,0,0-3.363.076L22,8.486V26.9A1.911,1.911,0,0,0,23.911,28.815Zm0-19.871,1.853-3.6,1.968,3.611v14.13H23.911Zm0,15.7h3.821v2.331H23.911Z"
                      transform="translate(-0.893 -0.111)"
                      fill="#3fb3e6"
                    />
                  </g>
                </svg>