<svg id="finall_logo" data-name="finall logo" xmlns="http://www.w3.org/2000/svg" width="90.002" height="32" viewBox="0 0 90.002 32">
  <text id="tech" transform="translate(48 26)" fill="#fff" font-size="24" font-family="SegoeUI-Bold, Segoe UI" letter-spacing="-0.04em" font-weight="700"><tspan x="-47.979" y="0">Tech</tspan></text>
  <g id="Group_12210" data-name="Group 12210" transform="translate(50.213 4.941)">
    <g id="Group_12202" data-name="Group 12202" transform="translate(13.251 0)">
      <g id="Group_12201" data-name="Group 12201" transform="translate(10.409)">
        <path id="Subtraction_1" data-name="Subtraction 1" d="M1.486,5.177a1.326,1.326,0,0,1-.143-.006,4.551,4.551,0,0,0,.292-.749,3.268,3.268,0,0,0,.13-.7,1.69,1.69,0,0,0-.09-.709,1.665,1.665,0,0,0-.4-.585A3.171,3.171,0,0,0,.712,2,4.4,4.4,0,0,0,0,1.646H0a3.8,3.8,0,0,1,.386-.393A2.24,2.24,0,0,1,.759.98.831.831,0,0,1,1.154.857a.423.423,0,0,1,.166.032,2.874,2.874,0,0,0,1.148.29A1.156,1.156,0,0,0,3.122,1C3.155.973,3.2.94,3.26.9a6.993,6.993,0,0,1,.776-.51A2.9,2.9,0,0,1,5.117.01,2.129,2.129,0,0,1,5.33,0a2.774,2.774,0,0,1,.629.078A4.068,4.068,0,0,1,7.016.5a3.951,3.951,0,0,1-.121.778,3.408,3.408,0,0,1-.257.7,2.294,2.294,0,0,1-.483.653,2.676,2.676,0,0,1-1.242.464,2.21,2.21,0,0,0-1.1.413,3.959,3.959,0,0,0-.356.478,3.145,3.145,0,0,1-.657.783,2.266,2.266,0,0,1-.758.348A2.29,2.29,0,0,1,1.486,5.177ZM5.106.8a.636.636,0,1,0,.636.636A.637.637,0,0,0,5.106.8Z" transform="translate(0)" fill="#fff"/>
        <path id="Path_2739" data-name="Path 2739" d="M1.468,1.9A2.986,2.986,0,0,0,1.4,0s.457,1.413,1.194,1.763S4.343,1.4,4.343,1.4A3.24,3.24,0,0,0,2.871,2.616,2.41,2.41,0,0,0,3,4.343s-.5-1.17-1.245-1.477A2.426,2.426,0,0,0,0,3.113,2.987,2.987,0,0,0,1.468,1.9Z" transform="matrix(-1, 0.017, -0.017, -1, 11.619, 4.427)" fill="#fff"/>
      </g>
      <path id="Oval" d="M0,8.858A7.2,7.2,0,0,1,.058,7.85a12.191,12.191,0,0,1,.9-3.063,8.675,8.675,0,0,1,15.573.128,8.6,8.6,0,0,1,.845,3.734,8.26,8.26,0,0,1-8.005,8.51,12.545,12.545,0,0,1-3.785-.566" transform="translate(24.417 12.134) rotate(135)" fill="none" stroke="#fff" stroke-linecap="round" stroke-miterlimit="10" stroke-width="3"/>
    </g>
    <g id="Group_12200" data-name="Group 12200" transform="translate(0 1.603)">
      <path id="Path_2736" data-name="Path 2736" d="M5304.277-1611.8l2.454-3.218a11.384,11.384,0,0,0-11.38-.687c-5.125,2.623-7.035,9.514-3.618,15s11.71,5.712,14.99,2.664c0,0-3.041-3.021-3.244-5.657v2.993c-1.83.989-6.926,1.249-8.641-2.742s-.255-8.276,4.061-9.333A7.391,7.391,0,0,1,5304.277-1611.8Z" transform="translate(-5290.012 1616.937)" fill="#fff"/>
      <path id="Path_2737" data-name="Path 2737" d="M5419.732-1472.33l-4.994.118,3.694-3.627h.954a13.861,13.861,0,0,0,0,2.01A5.765,5.765,0,0,0,5419.732-1472.33Z" transform="translate(-5406.368 1485.275)" fill="#fff"/>
    </g>
  </g>
</svg>
